<svg width="255" height="50">
 <g font-family="Arial" font-weight="bold" font-size="66.5">
  <text fill="#F9A500" x="0" y="0"  transform="matrix(0.55,0,0,0.047,0,49)">G</text>
  <text fill="#00BB00" x="0" y="0"  transform="matrix(0.53,0,0,0.064,2,46.65)">A</text>
  <text fill="#DD0000" x="0" y="0"  transform="matrix(0.65,0,0,0.094,1,43.45)">T</text>
  <text fill="#0000EE" x="0" y="0"  transform="matrix(0.59,0,0,0.795,0,38.75)">C</text>
  
  <text fill="#0000EE" x="0" y="0"  transform="matrix(0.59,0,0,0.030,25,49)">C</text>
  <text fill="#DD0000" x="0" y="0"  transform="matrix(0.65,0,0,0.040,26,47.5)">T</text>
  <text fill="#F9A500" x="0" y="0"  transform="matrix(0.55,0,0,0.044,25,45.5)">G</text>
  <text fill="#00BB00" x="0" y="0"  transform="matrix(0.53,0,0,0.886,27,43.3)">A</text>
  
  <text fill="#F9A500" x="0" y="0"  transform="matrix(0.55,0,0,0.032,50,49)">G</text>
  <text fill="#00BB00" x="0" y="0"  transform="matrix(0.53,0,0,0.046,52,47.4)">A</text>
  <text fill="#0000EE" x="0" y="0"  transform="matrix(0.59,0,0,0.052,50,45.1)">C</text>
  <text fill="#DD0000" x="0" y="0"  transform="matrix(0.65,0,0,0.870,51,42.5)">T</text>
  
  <text fill="#0000EE" x="0" y="0"  transform="matrix(0.59,0,0,0.035,75,49)">C</text>
  <text fill="#F9A500" x="0" y="0"  transform="matrix(0.55,0,0,0.042,75,47.25)">G</text>
  <text fill="#00BB00" x="0" y="0"  transform="matrix(0.53,0,0,0.059,77,45.15)">A</text>
  <text fill="#DD0000" x="0" y="0"  transform="matrix(0.65,0,0,0.864,76,42.2)">T</text>
  
  <text fill="#0000EE" x="0" y="0"  transform="matrix(0.59,0,0,0.034,100,49)">C</text>
  <text fill="#00BB00" x="0" y="0"  transform="matrix(0.53,0,0,0.040,102,47.3)">A</text>
  <text fill="#F9A500" x="0" y="0"  transform="matrix(0.55,0,0,0.057,100,45.3)">G</text>
  <text fill="#DD0000" x="0" y="0"  transform="matrix(0.65,0,0,0.869,101,42.45)">T</text>
  
  <text fill="#F9A500" x="0" y="0"  transform="matrix(0.55,0,0,0.050,125,49)">G</text>
  <text fill="#00BB00" x="0" y="0"  transform="matrix(0.53,0,0,0.091,127,46.5)">A</text>
  <text fill="#DD0000" x="0" y="0"  transform="matrix(0.65,0,0,0.171,126,41.95)">T</text>
  <text fill="#0000EE" x="0" y="0"  transform="matrix(0.59,0,0,0.688,125,33.4)">C</text>
  
  <text fill="#0000EE" x="0" y="0"  transform="matrix(0.59,0,0,0.086,150,49)">C</text>
  <text fill="#DD0000" x="0" y="0"  transform="matrix(0.65,0,0,0.115,151,44.7)">T</text>
  <text fill="#00BB00" x="0" y="0"  transform="matrix(0.53,0,0,0.150,152,38.95)">A</text>
  <text fill="#F9A500" x="0" y="0"  transform="matrix(0.55,0,0,0.649,150,31.45)">G</text>
  
  <text fill="#F9A500" x="0" y="0"  transform="matrix(0.55,0,0,0.037,175,49)">G</text>
  <text fill="#DD0000" x="0" y="0"  transform="matrix(0.65,0,0,0.042,176,47.15)">T</text>
  <text fill="#0000EE" x="0" y="0"  transform="matrix(0.59,0,0,0.083,175,45.05)">C</text>
  <text fill="#00BB00" x="0" y="0"  transform="matrix(0.53,0,0,0.838,177,40.9)">A</text>
  
  <text fill="#0000EE" x="0" y="0"  transform="matrix(0.59,0,0,0.040,200,49)">C</text>
  <text fill="#F9A500" x="0" y="0"  transform="matrix(0.55,0,0,0.041,200,47)">G</text>
  <text fill="#00BB00" x="0" y="0"  transform="matrix(0.53,0,0,0.128,202,44.95)">A</text>
  <text fill="#DD0000" x="0" y="0"  transform="matrix(0.65,0,0,0.791,201,38.55)">T</text>
  
  <text fill="#0000EE" x="0" y="0"  transform="matrix(0.59,0,0,0.074,225,49)">C</text>
  <text fill="#F9A500" x="0" y="0"  transform="matrix(0.55,0,0,0.082,225,45.3)">G</text>
  <text fill="#DD0000" x="0" y="0"  transform="matrix(0.65,0,0,0.091,226,41.2)">T</text>
  <text fill="#00BB00" x="0" y="0"  transform="matrix(0.53,0,0,0.753,227,36.65)">A</text>
  
 </g>
</svg>
